<?xml version="1.0" encoding="UTF-8" standalone="no"?>
<!-- Generator: Adobe Illustrator 16.0.4, SVG Export Plug-In . SVG Version: 6.00 Build 0)  -->

<svg
   xmlns:dc="http://purl.org/dc/elements/1.1/"
   xmlns:cc="http://creativecommons.org/ns#"
   xmlns:rdf="http://www.w3.org/1999/02/22-rdf-syntax-ns#"
   xmlns:svg="http://www.w3.org/2000/svg"
   xmlns="http://www.w3.org/2000/svg"
   xmlns:sodipodi="http://sodipodi.sourceforge.net/DTD/sodipodi-0.dtd"
   xmlns:inkscape="http://www.inkscape.org/namespaces/inkscape"
   version="1.1"
   id="Calque_1"
   x="0px"
   y="0px"
   width="399.842px"
   height="115.801px"
   viewBox="0 0 399.842 115.801"
   enable-background="new 0 0 399.842 115.801"
   xml:space="preserve"
   inkscape:version="0.91 r13725"
   sodipodi:docname="alignak-logo-gradient2.svg"><metadata
     id="metadata72"><rdf:RDF><cc:Work
         rdf:about=""><dc:format>image/svg+xml</dc:format><dc:type
           rdf:resource="http://purl.org/dc/dcmitype/StillImage" /><dc:title></dc:title></cc:Work></rdf:RDF></metadata><defs
     id="defs70" /><sodipodi:namedview
     pagecolor="#ffffff"
     bordercolor="#666666"
     borderopacity="1"
     objecttolerance="10"
     gridtolerance="10"
     guidetolerance="10"
     inkscape:pageopacity="0"
     inkscape:pageshadow="2"
     inkscape:window-width="1366"
     inkscape:window-height="707"
     id="namedview68"
     showgrid="true"
     inkscape:zoom="2.2424142"
     inkscape:cx="311.08771"
     inkscape:cy="57.900501"
     inkscape:window-x="0"
     inkscape:window-y="0"
     inkscape:window-maximized="1"
     inkscape:current-layer="g3"><inkscape:grid
       type="xygrid"
       id="grid4239" /></sodipodi:namedview><g
     id="g3"><linearGradient
       id="SVGID_1_"
       gradientUnits="userSpaceOnUse"
       x1="29.9692"
       y1="60.5098"
       x2="29.9692"
       y2="90.801003"><stop
         offset="0"
         style="stop-color:#1FB3E3"
         id="stop6" /><stop
         offset="9.944750e-04"
         style="stop-color:#1FB3E3"
         id="stop8" /><stop
         offset="1"
         style="stop-color:#0082B7"
         id="stop10" /></linearGradient><path
       d="M38.003,75.741c0-4.018,3.254-7.286,7.269-7.286s7.269,3.269,7.269,7.286   c0,4.014-3.254,7.278-7.269,7.278S38.003,79.755,38.003,75.741 M27.498,6.962L0,88.491l0.245,0.359   c1.604,0.401,3.166,0.598,4.682,0.598c1.525,0,2.802-0.113,3.849-0.356l6.957-21.494h0.01l3.155-9.396l8.844-26.986   c1.203-3.602,2.561-8.364,4.086-14.29h0.596c1.044,4.005,3.087,10.688,6.124,20.056l7.564,22.81h-0.018l0.459,1.4   c-0.431-0.036-0.841-0.129-1.281-0.129c-8.1,0-14.665,6.572-14.665,14.679c0,8.105,6.565,14.673,14.665,14.673   c8.11,0,14.666-6.567,14.666-14.673c0-1.367-0.242-2.669-0.595-3.928l0.059,0.018L37.826,6.962   c-1.035-0.241-2.678-0.358-4.925-0.358C30.662,6.604,28.864,6.721,27.498,6.962"
       id="path12"
       fill="url(#SVGID_1_)"
       style="fill:url(#SVGID_1_)" /><linearGradient
       id="SVGID_2_"
       gradientUnits="userSpaceOnUse"
       x1="91.9219"
       y1="60.5098"
       x2="91.921898"
       y2="90.801003"><stop
         offset="0"
         style="stop-color:#1FB3E3"
         id="stop15" /><stop
         offset="9.944750e-04"
         style="stop-color:#1FB3E3"
         id="stop17" /><stop
         offset="1"
         style="stop-color:#0082B7"
         id="stop19" /></linearGradient><path
       fill="url(#SVGID_2_)"
       d="M83.089,0.719l-0.713,0.721v78.044c0,3.766,1.112,6.386,3.36,7.866   c2.238,1.484,5.003,2.223,8.287,2.223c1.202,0,2.393-0.084,3.595-0.245c1.203-0.16,2.444-0.365,3.723-0.61   c0-0.16,0.018-0.388,0.059-0.669c0.04-0.289,0.068-0.673,0.068-1.164c0-0.727-0.068-1.542-0.186-2.436   c-0.118-0.896-0.34-1.711-0.654-2.438h-5.053c-2.959,0-4.436-1.721-4.436-5.162V6.715c0-2.156-0.322-3.699-0.968-4.62   c-0.634-0.917-1.915-1.376-3.84-1.376H83.089z"
       id="path21"
       style="fill:url(#SVGID_2_)" /><linearGradient
       id="SVGID_3_"
       gradientUnits="userSpaceOnUse"
       x1="122.3555"
       y1="60.5098"
       x2="122.3555"
       y2="90.801003"><stop
         offset="0"
         style="stop-color:#1FB3E3"
         id="stop24" /><stop
         offset="9.944750e-04"
         style="stop-color:#1FB3E3"
         id="stop26" /><stop
         offset="1"
         style="stop-color:#0082B7"
         id="stop28" /></linearGradient><path
       fill="url(#SVGID_3_)"
       d="M121.157,28.551c-0.565,0-1.328,0.062-2.285,0.18c-0.959,0.125-2.198,0.267-3.724,0.423   c-0.322,0.961-0.478,2.086-0.478,3.359c0,1.286,0.156,2.365,0.478,3.246h1.086c1.835,0,3.118,0.399,3.84,1.198   c0.723,0.804,1.083,2.323,1.083,4.563v47.45c1.201,0.239,2.678,0.364,4.438,0.364c1.758,0,3.242-0.125,4.446-0.364V37.199   c0-2.644-0.704-4.742-2.103-6.305c-1.406-1.562-3.342-2.344-5.821-2.344H121.157z"
       id="path30"
       style="fill:url(#SVGID_3_)" /><linearGradient
       id="SVGID_4_"
       gradientUnits="userSpaceOnUse"
       x1="244.2305"
       y1="60.5098"
       x2="244.2305"
       y2="90.801003"><stop
         offset="0"
         style="stop-color:#1FB3E3"
         id="stop33" /><stop
         offset="9.944750e-04"
         style="stop-color:#1FB3E3"
         id="stop35" /><stop
         offset="1"
         style="stop-color:#0082B7"
         id="stop37" /></linearGradient><path
       fill="url(#SVGID_4_)"
       d="M239.549,31.396c-3.682,1.561-6.889,3.62-9.604,6.181v-1.68c0-2.16-0.322-3.738-0.968-4.739   c-0.638-1.001-1.916-1.504-3.84-1.504h-3.363l-0.723,0.722v58.595c1.202,0.239,2.688,0.364,4.444,0.364   c1.762,0,3.247-0.125,4.449-0.364V46.348c2.312-2.723,5.195-4.943,8.637-6.663c3.45-1.727,6.77-2.584,9.967-2.584   c3.363,0,5.648,1.019,6.852,3.062c1.197,2.04,1.797,5.505,1.797,10.385v33.259c0,3.922,1.525,5.882,4.562,5.882   c2.484,0,4.359-0.639,5.648-1.919c-0.891-2.237-1.33-5.642-1.33-10.205V47.782c0-5.598-1.238-10.12-3.723-13.566   c-2.482-3.439-6.4-5.157-11.764-5.157C246.91,29.059,243.223,29.833,239.549,31.396"
       id="path39"
       style="fill:url(#SVGID_4_)" /><linearGradient
       id="SVGID_5_"
       gradientUnits="userSpaceOnUse"
       x1="309.4932"
       y1="60.5098"
       x2="309.49319"
       y2="90.801003"><stop
         offset="0"
         style="stop-color:#1FB3E3"
         id="stop42" /><stop
         offset="9.944750e-04"
         style="stop-color:#1FB3E3"
         id="stop44" /><stop
         offset="1"
         style="stop-color:#0082B7"
         id="stop46" /></linearGradient><path
       fill="url(#SVGID_5_)"
       d="M297.289,79.907c-1.67-1.962-2.502-4.629-2.502-7.987c0-3.439,1.193-6.226,3.578-8.346   c2.393-2.121,5.861-3.182,10.406-3.182c2.307,0,4.504,0.06,6.574,0.185c2.062,0.113,4.059,0.34,5.973,0.66v12.007   c-2.387,3.12-5.119,5.5-8.189,7.144c-3.068,1.64-6.078,2.461-9.02,2.461C301.238,82.849,298.969,81.865,297.289,79.907    M287.822,34.456c0,2.805,1.035,5.125,3.115,6.966c7.523-3.36,14.053-5.042,19.572-5.042c7.211,0,10.809,4.112,10.809,12.332v6.039   c-3.762-0.723-8.648-1.078-14.648-1.078c-2.961,0-5.727,0.4-8.287,1.196c-2.559,0.799-4.777,2.003-6.662,3.604   c-1.877,1.603-3.361,3.622-4.438,6.064c-1.086,2.441-1.623,5.259-1.623,8.46c0,2.329,0.373,4.524,1.135,6.607   c0.764,2.08,1.885,3.924,3.361,5.526c1.484,1.602,3.342,2.875,5.59,3.839c2.238,0.965,4.875,1.443,7.922,1.443   c5.924,0,11.963-3.003,18.129-9.007c1.045,4.164,3.529,6.963,7.447,8.404c1.848-0.801,3.205-2.322,4.082-4.563   c-1.121-1.119-1.98-2.619-2.58-4.5c-0.604-1.88-0.857-4.268-0.781-7.15V48.868c0-13.367-6.205-20.059-18.615-20.059   C304.307,28.81,296.469,30.699,287.822,34.456"
       id="path48"
       style="fill:url(#SVGID_5_)" /><linearGradient
       id="SVGID_6_"
       gradientUnits="userSpaceOnUse"
       x1="175.1987"
       y1="60.5098"
       x2="175.1987"
       y2="90.801003"><stop
         offset="0"
         style="stop-color:#1FB3E3"
         id="stop51" /><stop
         offset="9.944750e-04"
         style="stop-color:#1FB3E3"
         id="stop53" /><stop
         offset="1"
         style="stop-color:#0082B7"
         id="stop55" /></linearGradient><path
       fill="url(#SVGID_6_)"
       d="M166.128,31.031c-2.72,1.362-5.122,3.341-7.203,5.945c-2.082,2.601-3.744,5.802-4.984,9.606   c-1.24,3.8-1.858,8.143-1.858,13.024c0,9.688,1.759,17.232,5.277,22.635c3.528,5.407,8.532,8.105,15.01,8.105   c6.488,0,12.332-2.644,17.53-7.924v6.963c0,2.96-0.235,5.623-0.712,7.983c-0.478,2.362-1.349,4.383-2.592,6.062   c-1.24,1.68-2.902,2.961-4.972,3.845c-2.09,0.879-4.73,1.319-7.924,1.319c-5.611,0-11.091-1.279-16.454-3.84   c-1.606,1.838-2.443,4.156-2.523,6.962c6.242,2.722,13.125,4.082,20.657,4.082c3.764,0,7.056-0.557,9.898-1.68   c2.843-1.123,5.23-2.926,7.143-5.399c1.924-2.484,3.382-5.689,4.386-9.606c0.998-3.925,1.507-8.69,1.507-14.29V73.596H189.9v0.255   c-1.983,2.655-4.417,4.809-7.29,6.456c-2.871,1.652-5.977,2.475-9.332,2.475c-3.341,0-6.194-1.873-8.54-5.611   c-2.352-3.739-3.528-9.473-3.528-17.201c0-7.804,1.349-13.662,4.065-17.559c2.709-3.903,6.292-5.854,10.759-5.854   c2.148,0,4.427,0.501,6.81,1.505c2.393,1.008,4.75,2.518,7.056,4.527l4.377-4.166c-2.657-2.972-2.647-2.494-4.299-3.967   c-4.61-3.582-9.663-5.466-15.206-5.466C171.735,28.99,168.852,29.673,166.128,31.031"
       id="path57"
       style="fill:url(#SVGID_6_)" /><linearGradient
       id="SVGID_7_"
       gradientUnits="userSpaceOnUse"
       x1="377.0264"
       y1="60.5098"
       x2="377.0264"
       y2="90.801003"><stop
         offset="0"
         style="stop-color:#1FB3E3"
         id="stop60" /><stop
         offset="9.944750e-04"
         style="stop-color:#1FB3E3"
         id="stop62" /><stop
         offset="1"
         style="stop-color:#0082B7"
         id="stop64" /></linearGradient><path
       fill="url(#SVGID_7_)"
       d="M354.932,0l-0.721,0.719v87.534c1.199,0.238,2.666,0.361,4.385,0.361   c1.721,0,3.176-0.123,4.377-0.361V61.838c2.326-0.32,4.811-0.479,7.447-0.479c2.648,0,4.768,0.601,6.361,1.801   c1.604,1.195,3.164,3.564,4.691,7.087l5.52,12.484c0.959,2.239,1.895,3.842,2.824,4.805c0.918,0.956,2.502,1.436,4.74,1.436   c2.234,0,4.004-0.879,5.285-2.638c-1.768-1.28-3.684-4.283-5.766-9.004l-4.682-10.569c-1.521-3.358-3.205-5.902-5.041-7.625   c-1.848-1.721-4.123-2.857-6.85-3.423c0.881-0.722,1.846-1.84,2.881-3.361l15.254-22.214l-0.723-0.957   c-2.236-0.162-3.965-0.245-5.158-0.245c-1.203,0-2.248,0.341-3.129,1.022c-0.877,0.683-1.834,1.821-2.883,3.424l-12.85,18.97   c-0.713,1.12-1.639,1.682-2.756,1.682l-5.168,0.242V6.002c0-2.161-0.312-3.698-0.957-4.623C361.371,0.459,360.09,0,358.176,0   H354.932z"
       id="path66"
       style="fill:url(#SVGID_7_)" /></g></svg>